<?xml version="1.0" encoding="UTF-8"?>
<svg version="1.1" xmlns="http://www.w3.org/2000/svg" width="1024" height="1024">
<path d="M0 0 C337.92 0 675.84 0 1024 0 C1024 337.92 1024 675.84 1024 1024 C686.08 1024 348.16 1024 0 1024 C0 686.08 0 348.16 0 0 Z " fill="#F9F9F9" transform="translate(0,0)"/>
<path d="M0 0 C0.36536865 1.22251465 0.7307373 2.4450293 1.10717773 3.70458984 C8.44226813 28.19141702 16.04531834 52.56016982 24.3125 76.75 C24.68398163 77.83770691 25.05546326 78.92541382 25.4382019 80.04608154 C26.49350739 83.13073962 27.55211937 86.21422707 28.61328125 89.296875 C28.92723846 90.20931976 29.24119568 91.12176453 29.56466675 92.06185913 C30.95606248 96.08044012 32.36477246 100.07221282 34 104 C45.34369581 103.41581544 56.46373383 101.92922433 67.6875 100.25 C68.59172699 100.11583679 69.49595398 99.98167358 70.42758179 99.84344482 C85.68891229 97.57385844 100.88571622 95.11981552 116 92 C116.64978821 91.86591736 117.29957642 91.73183472 117.96905518 91.59368896 C145.85364196 85.81648419 173.40173126 78.77376224 200.66105652 70.53291321 C205.78508296 69 205.78508296 69 208 69 C216.80121614 97.29319965 225.4632723 125.62588502 234 154 C188.17250663 169.8895079 141.97537397 180.83826561 94 188 C92.04634521 188.29414795 92.04634521 188.29414795 90.05322266 188.59423828 C82.37182921 189.75026464 74.68761755 190.88611268 67 192 C86.44619268 228.77035002 108.11411542 265.58879472 135.50390625 297.10546875 C137.82161686 299.79314256 140.04080193 302.53557505 142.25 305.3125 C152.47930954 317.80903871 164.04538262 329.13962496 175.4375 340.5625 C175.99944061 341.12711945 176.56138123 341.69173889 177.14035034 342.27346802 C183.24566119 348.40084424 189.38737834 354.41463542 196 360 C197.11832833 360.97264818 198.23554566 361.94657548 199.3515625 362.921875 C205.38146092 368.14397058 211.47964693 373.25554129 217.75 378.1875 C218.34635254 378.65704102 218.94270508 379.12658203 219.55712891 379.61035156 C222.63483555 382.02571966 222.63483555 382.02571966 226 384 C224.58261511 387.25207092 222.87473588 389.31361067 220.3125 391.75 C217.04781407 394.93292277 214.01800359 398.21300958 211.046875 401.66796875 C208.41833312 404.66270063 205.71073282 407.57975602 203 410.5 C199.78823993 413.96270951 196.5889648 417.4264917 193.5 421 C190.41102693 424.57351786 187.21157787 428.03711114 184 431.5 C180.76870213 434.98446153 177.54964038 438.47041508 174.4375 442.0625 C171.42023647 445.5416656 168.34693788 448.96680192 165.25 452.375 C164.77747803 452.899729 164.30495605 453.42445801 163.81811523 453.96508789 C161.64603009 456.34540728 159.69832804 458.20111464 157 460 C156.55720703 459.55197021 156.11441406 459.10394043 155.65820312 458.64233398 C153.60823317 456.57129904 151.55414567 454.50439303 149.5 452.4375 C148.45585938 451.38079102 148.45585938 451.38079102 147.390625 450.30273438 C142.76233076 445.65301285 137.99481183 441.25210502 133 437 C132.36819824 436.45625732 131.73639648 435.91251465 131.08544922 435.35229492 C120.25129478 426.07829183 108.95599867 417.76820235 97 410 C96.37480469 409.58943359 95.74960937 409.17886719 95.10546875 408.75585938 C51.26339489 380.22448759 -6.67938142 364.03980913 -58.64257812 374.49951172 C-86.73794304 380.46424847 -113.84504462 391.92930408 -130.09765625 416.734375 C-140.3175605 434.2781942 -144.26482202 455.57844352 -139.375 475.4375 C-136.35805892 486.63722736 -130.55725046 495.337539 -123 504 C-122.49210938 504.60328125 -121.98421875 505.2065625 -121.4609375 505.828125 C-95.33271713 534.50217197 -44.82172858 541.99090839 -8.25344849 543.90582275 C55.80312431 546.58290708 115.56356436 537.10338353 176 516 C179.42605936 538.25868899 182.83202964 560.52042281 186.04119873 582.81158447 C186.30453336 584.63951534 186.56905198 586.46727605 186.83477783 588.29486084 C187.20473609 590.84319597 187.56992925 593.39216633 187.93359375 595.94140625 C188.04262527 596.68835251 188.1516568 597.43529877 188.26399231 598.20487976 C188.77521449 601.83145345 189.12231508 605.33637221 189 609 C151.31120502 621.75184793 113.58773665 630.58664007 74 635 C72.92621094 635.12149414 71.85242188 635.24298828 70.74609375 635.36816406 C-15.40310047 644.58271708 -118.14105628 635.76780449 -188.0625 579.75 C-218.11034448 555.11739546 -239.10748403 522.05399566 -244 483 C-244.50470646 476.77934497 -244.48603187 470.54923489 -244.4375 464.3125 C-244.43445862 463.48061157 -244.43141724 462.64872314 -244.42828369 461.79162598 C-244.35841344 448.84544543 -243.60369563 436.50597572 -240 424 C-239.78569336 423.23429687 -239.57138672 422.46859375 -239.35058594 421.6796875 C-231.91153559 395.77836518 -218.26926583 374.63215955 -200 355 C-199.38769531 354.33355469 -198.77539062 353.66710937 -198.14453125 352.98046875 C-157.67710753 310.61478634 -92.97781209 289.77208838 -35.65356445 287.89013672 C-32.10164323 287.83059194 -28.55241353 287.81059739 -25 287.8125 C-23.73921631 287.81185547 -22.47843262 287.81121094 -21.17944336 287.81054688 C-12.01525452 287.86182484 -3.03218546 288.44211534 6.05859375 289.5625 C9.42120751 289.93575346 12.62283274 290.0856334 16 290 C15.52433594 289.42378906 15.04867188 288.84757812 14.55859375 288.25390625 C1.72741093 271.97271847 -8.23031298 253.23822767 -18 235 C-18.50192871 234.06317383 -19.00385742 233.12634766 -19.52099609 232.16113281 C-21.14782034 229.11200498 -22.76365078 226.0573315 -24.375 223 C-24.87539795 222.05624512 -25.3757959 221.11249023 -25.89135742 220.14013672 C-34 204.61901354 -34 204.61901354 -34 199 C-34.85243538 199.0439666 -34.85243538 199.0439666 -35.72209167 199.08882141 C-53.25538901 199.96708896 -70.75911363 200.20097914 -88.3125 200.1875 C-89.00596401 200.18738041 -89.69942802 200.18726082 -90.4139061 200.1871376 C-205.18875045 200.16224991 -205.18875045 200.16224991 -256 190 C-256 160.96 -256 131.92 -256 102 C-247.54898312 102.60364406 -239.30321848 103.27057173 -230.9375 104.375 C-219.95899445 105.75775272 -208.96508506 106.74285979 -197.9375 107.625 C-196.77708694 107.71838654 -196.77708694 107.71838654 -195.5932312 107.81365967 C-179.86399557 109.07209876 -164.15349318 110.10092299 -148.375 110.5 C-147.2707518 110.52935135 -147.2707518 110.52935135 -146.14419556 110.55929565 C-119.10204736 111.27295163 -92.04820758 111.59860749 -65 112 C-65.2363063 111.3842511 -65.47261261 110.7685022 -65.71607971 110.13409424 C-71.20280462 95.79131016 -76.33116095 81.39860427 -80.9375 66.75 C-81.23037903 65.82552063 -81.52325806 64.90104126 -81.82501221 63.94854736 C-86.0841611 50.49129325 -90.10846466 36.9783278 -93.875 23.375 C-94.0901828 22.59829956 -94.3053656 21.82159912 -94.52706909 21.0213623 C-98 8.43057645 -98 8.43057645 -98 6 C-88.08919497 5.23404322 -78.17832398 4.46894607 -68.26737118 3.7049036 C-63.66381129 3.34998561 -59.06027341 2.99478727 -54.45678711 2.63891602 C-50.0023627 2.29457887 -45.54787883 1.95102018 -41.09335518 1.60796928 C-39.40595994 1.4778885 -37.71858518 1.3475416 -36.03123283 1.21690559 C-31.40858376 0.85911134 -26.78555172 0.50740732 -22.16184616 0.16353226 C-20.00377435 0.00028551 -17.84655306 -0.17205593 -15.6892395 -0.34500122 C-14.34436608 -0.44722264 -12.99946777 -0.5491174 -11.65454102 -0.65063477 C-10.48754166 -0.74232437 -9.3205423 -0.83401398 -8.11817932 -0.92848206 C-5.21160259 -0.99514672 -2.80940528 -0.70344663 0 0 Z " fill="#000000" transform="translate(520,150)"/>
<path d="M0 0 C-0.66 1.32 -1.32 2.64 -2 4 C-3.65 3.67 -5.3 3.34 -7 3 C-7.33 2.01 -7.66 1.02 -8 0 C-2.25 -1.125 -2.25 -1.125 0 0 Z " fill="#F0F0F0" transform="translate(594,341)"/>
<path d="M0 0 C6.82211538 3.47307692 6.82211538 3.47307692 7.72265625 6.140625 C7.81417969 6.75421875 7.90570312 7.3678125 8 8 C6.66102417 7.04956626 5.32894573 6.08940853 4 5.125 C3.2575 4.59132813 2.515 4.05765625 1.75 3.5078125 C1.1725 3.01023437 0.595 2.51265625 0 2 C0 1.34 0 0.68 0 0 Z " fill="#EDECED" transform="translate(629,568)"/>
<path d="M0 0 C0.66 0 1.32 0 2 0 C3.625 2.5 3.625 2.5 5 5 C2.69 5 0.38 5 -2 5 C-1.34 4.67 -0.68 4.34 0 4 C0 2.68 0 1.36 0 0 Z " fill="#DEDFDE" transform="translate(532,436)"/>
</svg>
